<svg viewBox="0 0 395.7 170.5" xmlns="http://www.w3.org/2000/svg"><path d="m159.4 60.5a6 6 0 0 1 4.4-1.8c3.6-.1 5.9 2.1 5.9 5.9l.2 11.6h-6.5v-9.8c-.1-1.4-.7-2-1.9-1.9a1.8 1.8 0 0 0 -1.9 1.9v9.9l-6.5.2-.4-24.5h6.5z" fill="#3e3e3f"/><path d="m180.3 58.9h4.3v5.3h-4.3v4.3c0 1.8 1.3 2.4 3 2.4l1.5-.2v5.4l-3.1.4c-5.2.1-7.7-2.9-7.8-7.5v-4.7h-2.3v-5.3h2.4v-4h6.2z" fill="#3e3e3f"/><path d="m194.9 58.6h4.3v5.2h-4.4v4.4c0 1.7 1.4 2.3 3.1 2.3l1.5-.2v5.4a10 10 0 0 1 -3.2.4c-5.1.1-7.7-2.9-7.7-7.4v-4.7h-2.4v-5.2h2.3v-4h6.3z" fill="#3e3e3f"/><path d="m201.9 58.5h5.5l.7 2.2a6.2 6.2 0 0 1 5.1-2.8c4 0 7.6 3.5 7.7 9s-3.3 9.1-7.2 9.1a6 6 0 0 1 -5.1-2.5l.2 8.5h-6.5zm12.5 8.3a3.1 3.1 0 0 0 -3.1-3.2 3 3 0 0 0 -2.8 3.4 2.9 2.9 0 0 0 2.9 3.2 3.2 3.2 0 0 0 3-3.4z" fill="#3e3e3f"/><path d="m142.5 91h5.5l.7 2.2a6.2 6.2 0 0 1 5.1-2.8c4 0 7.6 3.5 7.7 9s-3.3 9.1-7.2 9.1a6 6 0 0 1 -5.1-2.5l.2 8.5h-6.5zm12.5 8.4a3.2 3.2 0 0 0 -3.1-3.3 3 3 0 0 0 -2.8 3.4 2.9 2.9 0 0 0 2.9 3.2 3.1 3.1 0 0 0 3-3.3z" fill="#3e3e3f"/><path d="m163.9 90.7h5.1l.7 2.4h.1a4.9 4.9 0 0 1 4.4-2.7h1.4v6.1a4.4 4.4 0 0 0 -1.6-.2c-1.9 0-3.6 1-3.6 4v7.4h-6.5z" fill="#3e3e3f"/><path d="m176.8 99c-.1-5.5 4-9.1 9.2-9.2s9.4 3.4 9.5 8.9-4 9.1-9.2 9.2-9.5-3.5-9.5-8.9zm12.1-.2a2.9 2.9 0 0 0 -2.8-3.2 3 3 0 0 0 -2.8 3.3c.1 2.1 1.4 3.3 2.9 3.3s2.7-1.3 2.7-3.4z" fill="#3e3e3f"/><path d="m208.8 98.3 6 8.7h-7.4l-2.5-4.4h-.1l-2.3 4.5h-7l5.6-8.6-5.8-8.6h7.1l2.5 4.5h.1l2.3-4.5 7-.2z" fill="#3e3e3f"/><path d="m224.9 113.2h-6.5l2.8-6.8-6.8-16.7h6.9l3.1 9.9h.1l2.8-10h6.6z" fill="#3e3e3f"/><path d="m18.3 34 2.4-8.3-10 4.7-2.6-5.6 10-4.7-8-3.4 6.9-3.3 11.8 5.1-3.6 12.3z" fill="#00bbd6"/><path d="m37.9 7.1a3.2 3.2 0 1 1 6.3-.8 3.1 3.1 0 0 1 -2.7 3.5 3.2 3.2 0 0 1 -3.6-2.7zm.7 4.2 6-.8 2 16.1-6.1.7z" fill="#00bbd6"/><path d="m49.4 10 5.2.2.5 2.1a5.9 5.9 0 0 1 5-2.4c3.7.2 7 3.6 6.8 8.8s-3.5 8.4-7.3 8.3a5.7 5.7 0 0 1 -4.6-2.7l-.3 8.1-6.1-.3zm11.3 8.5a2.8 2.8 0 0 0 -2.6-3.2c-1.7-.1-2.8 1.2-2.9 3a2.9 2.9 0 0 0 2.6 3.2 2.9 2.9 0 0 0 2.9-3z" fill="#00bbd6"/><path d="m69.2 11 6.4 1.2.8 10.1h.1l4.5-9.1 6.1 1.1-8.7 14.8-6.4-1.2z" fill="#00bbd6"/><path d="m103.6 31.6-3.1-.9-1.2 4-5.5-1.6 1.2-4-9.5-2.8 1-3.5 13.6-10.2 5.3 1.6-3.5 11.8 3.1.9zm-7.2-7.2 1.5-5.1-5.2 3.9z" fill="#00bbd6"/><path d="m120.5 41.4 7.7-3.9-10.2-4.1 2.3-5.8 10.2 4.1-2.9-8.1 7.1 2.8 4.3 12-11.4 5.9z" fill="#00bbd6"/><path d="m7.4 92.5 5.7-6.5h-11v-6.3h11l-5.7-6.4h7.6l8.5 9.5-8.5 9.7z" fill="#ffcf01"/><path d="m32 73a3.2 3.2 0 0 1 3.2-3.2 3.2 3.2 0 1 1 0 6.3 3.2 3.2 0 0 1 -3.2-3.1zm.2 4.3h6.1v16.1h-6.1z" fill="#ffcf01"/><path d="m41.3 77.3h5.3l.5 2.1a6 6 0 0 1 4.9-2.6c3.8 0 7.2 3.4 7.2 8.5s-3.3 8.6-7 8.6a5.7 5.7 0 0 1 -4.7-2.5v8h-6.2zm11.7 8a2.8 2.8 0 0 0 -2.8-3 2.7 2.7 0 0 0 -2.8 3 2.8 2.8 0 0 0 2.7 3.1 3 3 0 0 0 2.9-3.1z" fill="#ffcf01"/><path d="m59.4 77.3h6.5l2.7 9.8h.1l2.8-9.8h6.2l-5.9 16.1h-6.5z" fill="#ffcf01"/><path d="m97.3 89.2h-3.3v4.2h-5.7v-4.2h-9.9v-3.5l10.1-13.7h5.5v12.3h3.3zm-9-4.9v-5.3l-3.9 5.3z" fill="#ffcf01"/><path d="m110 92.5 5.8-6.5h-11.1v-6.3h11.1l-5.8-6.4h7.7l8.4 9.5-8.4 9.7z" fill="#ffcf01"/><g fill="#ec008c"><path d="m8.9 156.2 7.7-4-10.3-4 2.3-5.8 10.3 4-3-8.1 7.1 2.8 4.4 12-11.4 5.9z"/><path d="m37 143.3a3.1 3.1 0 0 1 3.2-3.1 3.2 3.2 0 1 1 0 6.3 3.2 3.2 0 0 1 -3.2-3.2zm.1 4.3h6.2v16.2h-6.2z"/><path d="m45.8 147.7 5.2-.7.8 2a6 6 0 0 1 4.5-3.3c3.7-.5 7.6 2.3 8.3 7.4s-1.9 8.9-5.6 9.5a5.5 5.5 0 0 1 -5-1.8l1.2 8-6.1.9zm12.7 6.3a2.8 2.8 0 0 0 -3.2-2.6 2.7 2.7 0 0 0 -2.3 3.4 2.9 2.9 0 0 0 3.2 2.7 3 3 0 0 0 2.3-3.5z"/><path d="m63.3 145 6.3-1.7 5.2 8.7h.1v-10.2l6-1.7-1.4 17.2-6.3 1.7z"/><path d="m103.1 144.8-3.1 1.1 1.4 4-5.4 1.9-1.4-4-9.3 3.4-1.2-3.3 4.9-16.3 5.2-1.9 4.1 11.6 3.1-1.1zm-10.2-1.6-1.7-4.9-1.9 6.2z"/><path d="m116 143 2.8-8.2-10.2 4.3-2.4-5.8 10.2-4.2-7.8-3.8 7.1-2.9 11.5 5.6-4.1 12.1z"/><path d="m254.4 47.8 4-9.1-11.9 3.9-2.2-6.7 11.9-3.9-8.5-4.9 8.3-2.7 12.5 7.4-5.8 13.3z"/><path d="m274.9 18.3a3.7 3.7 0 0 1 2.5-4.5 3.6 3.6 0 0 1 4.4 2.5 3.5 3.5 0 0 1 -2.4 4.4 3.5 3.5 0 0 1 -4.5-2.4zm1.5 4.6 6.6-1.9 5.1 17.6-6.7 1.9z"/><path d="m286.9 19.8 5.7-1.4 1.2 2.2a6.8 6.8 0 0 1 4.7-4.1c4.2-1 8.8 1.8 10.2 7.5s-1.4 10.3-5.5 11.2a6.4 6.4 0 0 1 -5.8-1.4l2.1 8.8-6.8 1.6zm14.9 5.8a3.1 3.1 0 0 0 -3.9-2.6c-1.8.4-2.7 2.1-2.2 4.1s2 3.1 3.8 2.7a3.3 3.3 0 0 0 2.3-4.2z"/><path d="m307.9 14.8 7.4-1.1 4.5 10.6h.1l1.5-11.4 7-1-4 19-7.3 1.1z"/><path d="m351.5 21.4c-.1 5.2-4.2 9.3-10.2 9.2s-9.9-4.2-9.9-9.2c.1-3.3 1.9-6.2 4-8.5l6-7.2h8.4l-6.2 7.4a8.3 8.3 0 0 1 7.9 8.3zm-7.1 0a3.1 3.1 0 0 0 -3.3-3.3l-1.6.3a4.7 4.7 0 0 0 -1.2 2.9 3.1 3.1 0 0 0 3.1 3.2 3 3 0 0 0 3-3.1z"/><path d="m363.9 31.6 8.7-4.6-11.7-4.4 2.6-6.6 11.7 4.4-3.5-9.2 8.1 3.2 5.1 13.5-12.9 6.8z"/></g><path d="m260 93.5 6.5-7.4h-12.5v-7h12.5l-6.5-7.4h8.7l9.6 10.9-9.6 10.9z" fill="#ffcf01"/><path d="m287.9 71.4a3.6 3.6 0 1 1 3.6 3.6 3.6 3.6 0 0 1 -3.6-3.6zm.1 4.9h7v18.3h-7z" fill="#ffcf01"/><path d="m298.4 76.3h6l.6 2.4a6.6 6.6 0 0 1 5.6-2.9c4.2 0 8 3.8 8 9.6s-3.6 9.7-7.8 9.7a6.5 6.5 0 0 1 -5.4-2.8v9.1h-7zm13.2 9.1a3.3 3.3 0 0 0 -3.1-3.5 3.2 3.2 0 0 0 -3.2 3.5c0 2.1 1.3 3.5 3.1 3.5a3.3 3.3 0 0 0 3.2-3.5z" fill="#ffcf01"/><path d="m318.9 76.3h7.4l3.1 11.1h.1l3.1-11.1h7.1l-6.7 18.3h-7.4z" fill="#ffcf01"/><path d="m360.9 85.9c0 5.2-4.1 9.3-10.1 9.3s-10-4.1-10-9.1c0-3.3 1.8-6.2 3.9-8.6l5.9-7.2h8.4l-6.1 7.5a8.2 8.2 0 0 1 8 8.1zm-7.1 0a3.1 3.1 0 0 0 -3.4-3.2l-1.6.3a4.6 4.6 0 0 0 -1.1 3 3 3 0 0 0 3.1 3.1 3.1 3.1 0 0 0 3-3.2z" fill="#ffcf01"/><path d="m375.2 93.5 6.5-7.4h-12.5v-7h12.5l-6.5-7.4h8.6l9.7 10.9-9.7 10.9z" fill="#ffcf01"/><path d="m244.2 136.8 8.6-4.7-11.7-4.3 2.4-6.6 11.7 4.3-3.6-9.1 8.2 2.9 5.3 13.5-12.8 7z" fill="#00bbd6"/><path d="m276.1 130 6.5 2.2-5.9 17.4-6.6-2.3zm1.4-4.6a3.6 3.6 0 0 1 4.6-2.2 3.4 3.4 0 0 1 2.2 4.5 3.5 3.5 0 0 1 -4.5 2.2 3.6 3.6 0 0 1 -2.3-4.5z" fill="#00bbd6"/><path d="m285.4 133.2 5.6 1.8v2.5a6.8 6.8 0 0 1 6.2-1.1c4 1.3 6.6 6.1 4.8 11.7s-6.5 8.1-10.5 6.8a6.6 6.6 0 0 1 -4.3-4.3l-2.8 8.7-6.6-2.1zm9.8 12.7a3.2 3.2 0 0 0 -2-4.2 3.1 3.1 0 0 0 -4 2.3c-.6 2 .1 3.8 1.8 4.3a3.3 3.3 0 0 0 4.2-2.4z" fill="#00bbd6"/><path d="m304.6 139.4 7.1 2v11.5h.2l5.8-10 6.9 1.8-11.2 16-7.2-1.9z" fill="#00bbd6"/><path d="m343.5 157.9c-.8 5.1-5.5 8.5-11.4 7.5s-9.2-5.7-8.4-10.6c.6-3.3 2.8-5.8 5.2-7.9l7.1-6.1 8.2 1.4-7.2 6.4a8 8 0 0 1 6.5 9.3zm-6.9-1.2a3.1 3.1 0 0 0 -2.8-3.7h-1.6a4.6 4.6 0 0 0 -1.7 2.8 3.1 3.1 0 0 0 2.5 3.6 3.2 3.2 0 0 0 3.6-2.7z" fill="#00bbd6"/><path d="m360.7 165.7 5.5-8.2-12.4 1.8-1-7.1 12.4-1.6-7.4-6.4 8.6-1.2 11 9.5-8.1 12.1z" fill="#00bbd6"/></svg>